<svg xmlns="http://www.w3.org/2000/svg" width="293.179" height="62"><g data-name="Group 4"><path d="M114.5 28.825a11.017 11.017 0 01-3.075 1.275 14.839 14.839 0 01-3.55.4 9.123 9.123 0 01-3.6-.7 8.792 8.792 0 01-2.85-1.913 8.74 8.74 0 01-1.875-2.85 9.191 9.191 0 01-.675-3.537 9.375 9.375 0 01.588-3.35 8.018 8.018 0 011.675-2.7 7.738 7.738 0 012.6-1.8 8.5 8.5 0 013.387-.65 10.291 10.291 0 013.85.612 5.8 5.8 0 012.2 1.412 2.265 2.265 0 01.375.75 5.979 5.979 0 01.188.887 8.706 8.706 0 01.075.938c.008.317.012.9.012.9s1.208 2.851 2.275 2.851v.625a1.318 1.318 0 00-1.225.625 3.413 3.413 0 00-.375 1.75z" fill="none" stroke="#000" stroke-linejoin="round" opacity=".3"/><g data-name="Group 6"><text transform="translate(0 22)" font-size="25" font-family="Philosopher-Bold, Philosopher" font-weight="700"><tspan x="0" y="0">A</tspan></text><text transform="translate(213 56)" font-size="25" font-family="Philosopher-Bold, Philosopher" font-weight="700"><tspan x="0" y="0">E</tspan></text><text transform="translate(101 29)" font-size="25" font-family="Philosopher-Bold, Philosopher" font-weight="700"><tspan x="0" y="0">G</tspan></text><path d="M293.177 36.205c-.411 0-.822-.205-1.233-.205a4.491 4.491 0 01-1.027-.616 4.3 4.3 0 01-.822-1.232 11.463 11.463 0 01-1.027-1.643l-7.6-18.694h-1.027l-10.064 23.212h22.8v-.822" fill="#131212" fill-rule="evenodd"/><path data-name="path14" stroke="#000" d="M58.177 55.205c-.411 0-.822-.205-1.233-.205a4.491 4.491 0 01-1.027-.616 4.3 4.3 0 01-.822-1.232 11.463 11.463 0 01-1.027-1.643l-7.6-18.694h-1.027L35.377 56.027h22.8v-.822" fill="none" stroke-linecap="round" stroke-linejoin="round"/></g></g></svg>