<svg xmlns="http://www.w3.org/2000/svg" width="346.623" height="113.713"><text transform="translate(74.623 71.186)" font-size="25" font-family="Philosopher-Bold, Philosopher" font-weight="700"><tspan x="0" y="0">A</tspan></text><text transform="translate(203.623 80.186)" font-size="25" font-family="Philosopher-Bold, Philosopher" font-weight="700"><tspan x="0" y="0">F</tspan></text><text transform="translate(139.623 36.186)" font-size="25" font-family="Philosopher-Bold, Philosopher" font-weight="700"><tspan x="0" y="0">F</tspan></text><text transform="translate(262.623 52.186)" font-size="25" font-family="Philosopher-Bold, Philosopher" font-weight="700"><tspan x="0" y="0">I</tspan></text><text transform="translate(328.623 92.186)" font-size="25" font-family="Philosopher-Bold, Philosopher" font-weight="700"><tspan x="0" y="0">N</tspan></text><path d="M22.8 22.391c-.411 0-.822-.205-1.233-.205a4.491 4.491 0 01-1.027-.616 4.3 4.3 0 01-.822-1.232 11.463 11.463 0 01-1.027-1.643L11.091.001h-1.027L0 23.213h22.8v-.822" fill="#131212" fill-rule="evenodd"/><path stroke="#000" d="M281.8 112.391c-.411 0-.822-.205-1.233-.205a4.491 4.491 0 01-1.027-.616 4.3 4.3 0 01-.822-1.232 11.463 11.463 0 01-1.027-1.643l-7.6-18.694h-1.027L259 113.213h22.8v-.822" fill="none" stroke-linecap="round" stroke-linejoin="round"/></svg>