<svg xmlns="http://www.w3.org/2000/svg" width="346.623" height="113.713" viewBox="0 0 346.623 113.713">
  <g transform="translate(-192.377 -692.814)">
    <text transform="translate(267 764)" font-size="25" font-family="Philosopher-Bold, Philosopher" font-weight="700"><tspan x="0" y="0">A</tspan></text>
    <text transform="translate(396 773)" font-size="25" font-family="Philosopher-Bold, Philosopher" font-weight="700"><tspan x="0" y="0">F</tspan></text>
    <text transform="translate(332 729)" font-size="25" font-family="Philosopher-Bold, Philosopher" font-weight="700"><tspan x="0" y="0">F</tspan></text>
    <text transform="translate(455 745)" font-size="25" font-family="Philosopher-Bold, Philosopher" font-weight="700"><tspan x="0" y="0">I</tspan></text>
    <text transform="translate(521 785)" font-size="25" font-family="Philosopher-Bold, Philosopher" font-weight="700"><tspan x="0" y="0">N</tspan></text>
    <path d="M300.3-815.109c-.411,0-.822-.205-1.233-.205a4.491,4.491,0,0,1-1.027-.616,4.3,4.3,0,0,1-.822-1.232,11.463,11.463,0,0,1-1.027-1.643l-7.6-18.694h-1.027L277.5-814.287h22.8v-.822" transform="translate(-85.123 1530.314)" fill="#131212" fill-rule="evenodd"/>
    <path stroke="#000" d="M300.3-815.109c-.411,0-.822-.205-1.233-.205a4.491,4.491,0,0,1-1.027-.616,4.3,4.3,0,0,1-.822-1.232,11.463,11.463,0,0,1-1.027-1.643l-7.6-18.694h-1.027L277.5-814.287h22.8v-.822" fill="none" transform="translate(173.877 1620.314)" stroke-linecap="round" stroke-linejoin="round" stroke-width="1" fill-rule="evenodd"/>
  </g>
</svg>
